<svg width="2" height="2" viewBox="0 0 2 2" fill="none" xmlns="http://www.w3.org/2000/svg">
<path fill-rule="evenodd" clip-rule="evenodd" d="M0.283931 0.674556C0.43292 0.525567 0.666714 0.375 1 0.375C1.33329 0.375 1.56708 0.525567 1.71607 0.674556C1.79038 0.74887 1.84397 0.823076 1.87906 0.878809C1.89664 0.906724 1.90966 0.930146 1.9184 0.94683C1.92277 0.955176 1.92608 0.961849 1.92835 0.966569C1.92949 0.96893 1.93037 0.970804 1.93099 0.972157L1.93174 0.97379L1.93197 0.974306L1.93206 0.974487L1.93209 0.974558C1.9321 0.974588 1.93211 0.974616 1.875 1C1.93211 1.02538 1.9321 1.02541 1.93209 1.02544L1.93206 1.02551L1.93197 1.02569L1.93174 1.02621L1.93099 1.02784C1.93037 1.0292 1.92949 1.03107 1.92835 1.03343C1.92608 1.03815 1.92277 1.04482 1.9184 1.05317C1.90966 1.06985 1.89664 1.09328 1.87906 1.12119C1.84397 1.17692 1.79038 1.25113 1.71607 1.32544C1.56708 1.47443 1.33329 1.625 1 1.625C0.666714 1.625 0.43292 1.47443 0.283931 1.32544C0.209617 1.25113 0.15603 1.17692 0.120939 1.12119C0.103362 1.09328 0.0903373 1.06985 0.0815984 1.05317C0.0772267 1.04482 0.0739205 1.03815 0.0716476 1.03343C0.0705109 1.03107 0.0696319 1.0292 0.0690066 1.02784L0.0682582 1.02621L0.0680256 1.02569L0.0679445 1.02551L0.0679127 1.02544C0.0678993 1.02541 0.0678868 1.02538 0.125 1C0.0678868 0.974616 0.0678993 0.974588 0.0679127 0.974558L0.0679445 0.974487L0.0680256 0.974306L0.0682582 0.97379L0.0690066 0.972157C0.0696319 0.970804 0.0705109 0.96893 0.0716476 0.966569C0.0739205 0.961849 0.0772267 0.955176 0.0815984 0.94683C0.0903373 0.930146 0.103362 0.906724 0.120939 0.878809C0.15603 0.823076 0.209617 0.74887 0.283931 0.674556ZM0.125 1L0.0678868 0.974616C0.0607044 0.990777 0.0607044 1.00922 0.0678868 1.02538L0.125 1ZM0.194882 1C0.202235 1.01377 0.212794 1.03248 0.226718 1.05459C0.258033 1.10433 0.306008 1.17074 0.372319 1.23706C0.50458 1.36932 0.708286 1.5 1 1.5C1.29171 1.5 1.49542 1.36932 1.62768 1.23706C1.69399 1.17074 1.74197 1.10433 1.77328 1.05459C1.78721 1.03248 1.79777 1.01377 1.80512 1C1.79777 0.986227 1.78721 0.967524 1.77328 0.94541C1.74197 0.895674 1.69399 0.829255 1.62768 0.762944C1.49542 0.630683 1.29171 0.5 1 0.5C0.708286 0.5 0.50458 0.630683 0.372319 0.762944C0.306008 0.829255 0.258033 0.895674 0.226718 0.94541C0.212794 0.967524 0.202235 0.986227 0.194882 1ZM1.875 1L1.93211 1.02538C1.9393 1.00922 1.9393 0.990777 1.93211 0.974616L1.875 1Z" fill="#A259FF"/>
<path fill-rule="evenodd" clip-rule="evenodd" d="M1 0.75C0.861929 0.75 0.75 0.861929 0.75 1C0.75 1.13807 0.861929 1.25 1 1.25C1.13807 1.25 1.25 1.13807 1.25 1C1.25 0.861929 1.13807 0.75 1 0.75ZM0.625 1C0.625 0.792893 0.792893 0.625 1 0.625C1.20711 0.625 1.375 0.792893 1.375 1C1.375 1.20711 1.20711 1.375 1 1.375C0.792893 1.375 0.625 1.20711 0.625 1Z" fill="#A259FF"/>
</svg>
